<svg width="18" height="18" viewBox="0 0 18 18" fill="none" xmlns="http://www.w3.org/2000/svg">
<g id="Frame" clip-path="url(#clip0_6860_10)">
<path id="Vector" d="M18 10.9452V17.6H14.142V11.3909C14.142 9.83118 13.584 8.7667 12.1875 8.7667C11.1215 8.7667 10.4871 9.48408 10.208 10.178C10.1063 10.4261 10.0801 10.7714 10.0801 11.1187V17.6H6.22078C6.22078 17.6 6.27276 7.08391 6.22078 5.99437H10.0797V7.63942C10.0719 7.65172 10.0617 7.66499 10.0543 7.67691H10.0797V7.63942C10.5924 6.84977 11.508 5.72172 13.5574 5.72172C16.0965 5.72168 18 7.38045 18 10.9452ZM2.18381 0.399902C0.863556 0.399902 0 1.26589 0 2.40468C0 3.51866 0.838572 4.41093 2.13259 4.41093H2.15837C3.50419 4.41093 4.34117 3.51883 4.34117 2.40468C4.31581 1.26589 3.50419 0.399902 2.18381 0.399902ZM0.229207 17.6H4.08702V5.99437H0.229207V17.6Z" fill="#007BB5"/>
</g>
<defs>
<clipPath id="clip0_6860_10">
<rect width="18" height="18" fill="white"/>
</clipPath>
</defs>
</svg>
