<svg width="18" height="18" viewBox="0 0 18 18" fill="none" xmlns="http://www.w3.org/2000/svg">
<g id="Frame" clip-path="url(#clip0_6860_14)">
<path id="Vector" d="M12.375 0H5.625C2.51888 0 0 2.51888 0 5.625V12.375C0 15.4811 2.51888 18 5.625 18H12.375C15.4811 18 18 15.4811 18 12.375V5.625C18 2.51888 15.4811 0 12.375 0ZM16.3125 12.375C16.3125 14.5463 14.5463 16.3125 12.375 16.3125H5.625C3.45375 16.3125 1.6875 14.5463 1.6875 12.375V5.625C1.6875 3.45375 3.45375 1.6875 5.625 1.6875H12.375C14.5463 1.6875 16.3125 3.45375 16.3125 5.625V12.375Z" fill="#C32AA3"/>
<path id="Vector_2" d="M9 4.5C6.51487 4.5 4.5 6.51487 4.5 9C4.5 11.4851 6.51487 13.5 9 13.5C11.4851 13.5 13.5 11.4851 13.5 9C13.5 6.51487 11.4851 4.5 9 4.5ZM9 11.8125C7.44975 11.8125 6.1875 10.5503 6.1875 9C6.1875 7.44863 7.44975 6.1875 9 6.1875C10.5503 6.1875 11.8125 7.44863 11.8125 9C11.8125 10.5503 10.5503 11.8125 9 11.8125Z" fill="#C32AA3"/>
<path id="Vector_3" d="M13.8377 4.76199C14.1688 4.76199 14.4373 4.49353 14.4373 4.16237C14.4373 3.8312 14.1688 3.56274 13.8377 3.56274C13.5065 3.56274 13.238 3.8312 13.238 4.16237C13.238 4.49353 13.5065 4.76199 13.8377 4.76199Z" fill="#C32AA3"/>
</g>
<defs>
<clipPath id="clip0_6860_14">
<rect width="18" height="18" fill="white"/>
</clipPath>
</defs>
</svg>
