<svg width="18" height="18" viewBox="0 0 18 18" fill="none" xmlns="http://www.w3.org/2000/svg">
<g id="Frame" clip-path="url(#clip0_6860_8)">
<path id="XMLID 810" d="M9.00083 18C13.9634 18 18.0007 13.9624 18.0007 8.99957C18.0007 4.03719 13.9634 0 9.00083 0C4.03828 0 0.000976562 4.03719 0.000976562 8.99957C0.000976562 13.9624 4.03834 18 9.00083 18ZM9.00083 15.9037C7.5752 15.9037 6.22139 15.4769 5.06318 14.6655C5.53552 13.882 6.97121 11.9184 10.0465 10.7454C10.8217 12.847 11.2165 14.6404 11.3767 15.4816C10.6181 15.7619 9.82059 15.9037 9.00083 15.9037ZM13.3848 14.3253C13.2108 13.4752 12.8597 11.9794 12.2503 10.217C12.5585 10.1864 12.8741 10.1709 13.1941 10.1709C14.311 10.1709 15.243 10.3577 15.7351 10.4805C15.4064 11.9823 14.5731 13.3418 13.3848 14.3253ZM14.65 5.06723C15.3415 6.05728 15.7632 7.21966 15.8678 8.42272C15.2336 8.31861 14.1472 8.17776 12.9105 8.17776C12.4205 8.17776 11.946 8.20027 11.4956 8.24473C11.4838 8.2165 11.4718 8.18816 11.4598 8.1597C11.3658 7.93993 11.2649 7.71445 11.1586 7.48588C12.996 6.66167 14.1094 5.6522 14.65 5.06723ZM9.00083 2.11814C10.5482 2.11814 12.044 2.63899 13.256 3.59274C12.8381 4.05994 11.8859 4.94941 10.2098 5.64214C9.37426 4.14782 8.51678 2.88093 8.02651 2.18705C8.34799 2.14122 8.67387 2.11814 9.00083 2.11814ZM5.75334 2.93292C6.15768 3.50234 7.04955 4.79495 7.94994 6.34281C5.52809 6.92675 3.40001 7.05349 2.3842 7.07817C2.90196 5.31414 4.12394 3.80743 5.75334 2.93292ZM8.98455 8.25615C9.063 8.41472 9.1382 8.57101 9.2102 8.72438C6.15111 9.77573 4.25199 12.1204 3.51801 13.1831C2.64636 12.0403 2.15374 10.6567 2.11089 9.21665C3.17595 9.20551 6.01574 9.09037 8.98455 8.25615Z" fill="#EA4C89"/>
</g>
<defs>
<clipPath id="clip0_6860_8">
<rect width="18" height="18" fill="white"/>
</clipPath>
</defs>
</svg>
